<svg xmlns="http://www.w3.org/2000/svg" width="612" height="792" viewBox="0 0 612 792" shape-rendering="geometricPrecision"><rect width="612" height="792" fill="#ffffff"/><path d="M337.87139752102183,381.3543455383498 C337.87139752102183,387.30588425611677 333.0395031854425,392.1377785916961 327.0879644676756,392.1377785916961 C321.1364257499086,392.1377785916961 316.3045314143293,387.30588425611677 316.3045314143293,381.3543455383498 C316.3045314143293,375.40280682058284 321.1364257499086,370.57091248500353 327.0879644676756,370.57091248500353 C333.0395031854425,370.57091248500353 337.87139752102183,375.40280682058284 337.87139752102183,381.3543455383498 Z" fill="none" stroke="#000000" stroke-width="1.428" stroke-linecap="round" stroke-linejoin="round"/><path d="M308.783776694457,431.417515132201 C308.783776694457,437.36905384996794 303.95188235887775,442.20094818554725 298.00034364111076,442.20094818554725 C292.04880492334377,442.20094818554725 287.2169105877645,437.36905384996794 287.2169105877645,431.417515132201 C287.2169105877645,425.465976414434 292.04880492334377,420.63408207885476 298.00034364111076,420.63408207885476 C303.95188235887775,420.63408207885476 308.783776694457,425.465976414434 308.783776694457,431.417515132201 Z" fill="none" stroke="#000000" stroke-width="1.428" stroke-linecap="round" stroke-linejoin="round"/><path d="M294.7068065182846,357.39669857601024 C294.7068065182846,363.3482372937772 289.8749121827054,368.1801316293565 283.9233734649384,368.1801316293565 C277.9718347471714,368.1801316293565 273.13994041159214,363.3482372937772 273.13994041159214,357.39669857601024 C273.13994041159214,351.44515985824324 277.9718347471714,346.613265522664 283.9233734649384,346.613265522664 C289.8749121827054,346.613265522664 294.7068065182846,351.44515985824324 294.7068065182846,357.39669857601024 Z" fill="none" stroke="#000000" stroke-width="1.428" stroke-linecap="round" stroke-linejoin="round"/><path d="M365.69051198334506,411.6488782516469 C365.69051198334506,417.6004169694139 360.8586176477658,422.43231130499316 354.9070789299988,422.43231130499316 C348.9555402122318,422.43231130499316 344.1236458766526,417.6004169694139 344.1236458766526,411.6488782516469 C344.1236458766526,405.69733953388 348.9555402122318,400.8654451983007 354.9070789299988,400.8654451983007 C360.8586176477658,400.8654451983007 365.69051198334506,405.69733953388 365.69051198334506,411.6488782516469 Z" fill="none" stroke="#000000" stroke-width="1.428" stroke-linecap="round" stroke-linejoin="round"/><path d="M264.64590440371336,420.0346688412533 C264.64590440371336,425.9862075590203 259.8140100681341,430.8181018945995 253.86247135036712,430.8181018945995 C247.91093263260015,430.8181018945995 243.0790382970209,425.9862075590203 243.0790382970209,420.0346688412533 C243.0790382970209,414.0831301234863 247.91093263260015,409.25123578790704 253.86247135036712,409.25123578790704 C259.8140100681341,409.25123578790704 264.64590440371336,414.0831301234863 264.64590440371336,420.0346688412533 Z" fill="none" stroke="#000000" stroke-width="1.428" stroke-linecap="round" stroke-linejoin="round"/><path d="M341.11261779161424,338.0062468021665 C341.11261779161424,343.95778551993345 336.280723456035,348.7896798555127 330.329184738268,348.7896798555127 C324.377646020501,348.7896798555127 319.54575168492175,343.95778551993345 319.54575168492175,338.0062468021665 C319.54575168492175,332.0547080843995 324.377646020501,327.2228137488203 330.329184738268,327.2228137488203 C336.280723456035,327.2228137488203 341.11261779161424,332.0547080843995 341.11261779161424,338.0062468021665 Z" fill="none" stroke="#000000" stroke-width="1.428" stroke-linecap="round" stroke-linejoin="round"/><path d="M339.71945892180014,459.93997808383745 C339.71945892180014,465.89151680160444 334.8875645862209,470.7234111371837 328.9360258684539,470.7234111371837 C322.9844871506869,470.7234111371837 318.15259281510765,465.89151680160444 318.15259281510765,459.93997808383745 C318.15259281510765,453.9884393660705 322.9844871506869,449.1565450304912 328.9360258684539,449.1565450304912 C334.8875645862209,449.1565450304912 339.71945892180014,453.9884393660705 339.71945892180014,459.93997808383745 Z" fill="none" stroke="#000000" stroke-width="1.428" stroke-linecap="round" stroke-linejoin="round"/><path d="M252.53046699014928,362.16014373432324 C252.53046699014928,368.11168245209024 247.69857265457003,372.9435767876695 241.74703393680306,372.9435767876695 C235.79549521903607,372.9435767876695 230.96360088345682,368.11168245209024 230.96360088345682,362.16014373432324 C230.96360088345682,356.2086050165563 235.79549521903607,351.376710680977 241.74703393680306,351.376710680977 C247.69857265457003,351.376710680977 252.53046699014928,356.2086050165563 252.53046699014928,362.16014373432324 Z" fill="none" stroke="#000000" stroke-width="1.428" stroke-linecap="round" stroke-linejoin="round"/><path d="M391.280631179527,376.4310339734423 C391.280631179527,382.3825726912093 386.44873684394776,387.2144670267886 380.49719812618076,387.2144670267886 C374.54565940841377,387.2144670267886 369.7137650728345,382.3825726912093 369.7137650728345,376.4310339734423 C369.7137650728345,370.4794952556754 374.54565940841377,365.64760092009607 380.49719812618076,365.64760092009607 C386.44873684394776,365.64760092009607 391.280631179527,370.4794952556754 391.280631179527,376.4310339734423 Z" fill="none" stroke="#000000" stroke-width="1.428" stroke-linecap="round" stroke-linejoin="round"/><path d="M272.8137870520671,464.25426455923605 C272.8137870520671,470.20580327700304 267.98189271648783,475.0376976125823 262.03035399872084,475.0376976125823 C256.07881528095385,475.0376976125823 251.24692094537463,470.20580327700304 251.24692094537463,464.25426455923605 C251.24692094537463,458.3027258414691 256.07881528095385,453.4708315058898 262.03035399872084,453.4708315058898 C267.98189271648783,453.4708315058898 272.8137870520671,458.3027258414691 272.8137870520671,464.25426455923605 Z" fill="none" stroke="#000000" stroke-width="1.428" stroke-linecap="round" stroke-linejoin="round"/><path d="M302.4323249295496,312.0642058736614 C302.4323249295496,318.01574459142836 297.6004305939704,322.8476389270076 291.6488918762034,322.8476389270076 C285.6973531584364,322.8476389270076 280.86545882285714,318.01574459142836 280.86545882285714,312.0642058736614 C280.86545882285714,306.1126671558944 285.6973531584364,301.2807728203152 291.6488918762034,301.2807728203152 C297.6004305939704,301.2807728203152 302.4323249295496,306.1126671558944 302.4323249295496,312.0642058736614 Z" fill="none" stroke="#000000" stroke-width="1.428" stroke-linecap="round" stroke-linejoin="round"/><path d="M387.05497041096834,450.51862358310524 C387.05497041096834,456.47016230087223 382.2230760753891,461.3020566364515 376.2715373576221,461.3020566364515 C370.3199986398551,461.3020566364515 365.48810430427585,456.47016230087223 365.48810430427585,450.51862358310524 C365.48810430427585,444.56708486533824 370.3199986398551,439.735190529759 376.2715373576221,439.735190529759 C382.2230760753891,439.735190529759 387.05497041096834,444.56708486533824 387.05497041096834,450.51862358310524 Z" fill="none" stroke="#000000" stroke-width="1.428" stroke-linecap="round" stroke-linejoin="round"/><path d="M224.52103400742084,403.56415509428695 C224.52103400742084,409.5156938120539 219.68913967184162,414.3475881476332 213.73760095407462,414.3475881476332 C207.78606223630766,414.3475881476332 202.9541679007284,409.5156938120539 202.9541679007284,403.56415509428695 C202.9541679007284,397.61261637651995 207.78606223630766,392.7807220409407 213.73760095407462,392.7807220409407 C219.68913967184162,392.7807220409407 224.52103400742084,397.61261637651995 224.52103400742084,403.56415509428695 Z" fill="none" stroke="#000000" stroke-width="1.428" stroke-linecap="round" stroke-linejoin="round"/><path d="M382.0805832195791,325.5369150535656 C382.0805832195791,331.4884537713326 377.2486888839999,336.32034810691187 371.2971501662329,336.32034810691187 C365.3456114484659,336.32034810691187 360.51371711288664,331.4884537713326 360.51371711288664,325.5369150535656 C360.51371711288664,319.5853763357986 365.3456114484659,314.7534820002194 371.2971501662329,314.7534820002194 C377.2486888839999,314.7534820002194 382.0805832195791,319.5853763357986 382.0805832195791,325.5369150535656 Z" fill="none" stroke="#000000" stroke-width="1.428" stroke-linecap="round" stroke-linejoin="round"/><path d="M316.2131390249793,495.43659469592274 C316.2131390249793,501.38813341368973 311.3812446894,506.220027749269 305.429705971633,506.220027749269 C299.47816725386605,506.220027749269 294.64627291828674,501.38813341368973 294.64627291828674,495.43659469592274 C294.64627291828674,489.4850559781558 299.47816725386605,484.6531616425765 305.429705971633,484.6531616425765 C311.3812446894,484.6531616425765 316.2131390249793,489.4850559781558 316.2131390249793,495.43659469592274 Z" fill="none" stroke="#000000" stroke-width="1.428" stroke-linecap="round" stroke-linejoin="round"/><path d="M247.84645958662256,319.8760699303548 C247.84645958662256,325.8276086481218 243.01456525104334,330.659502983701 237.06302653327634,330.659502983701 C231.11148781550935,330.659502983701 226.27959347993013,325.8276086481218 226.27959347993013,319.8760699303548 C226.27959347993013,313.9245312125878 231.11148781550935,309.09263687700854 237.06302653327634,309.09263687700854 C243.01456525104334,309.09263687700854 247.84645958662256,313.9245312125878 247.84645958662256,319.8760699303548 Z" fill="none" stroke="#000000" stroke-width="1.428" stroke-linecap="round" stroke-linejoin="round"/><path d="M422.1833662498027,405.8595416821736 C422.1833662498027,411.8110803999406 417.3514719142234,416.64297473551983 411.39993319645646,416.64297473551983 C405.44839447868947,416.64297473551983 400.6165001431102,411.8110803999406 400.6165001431102,405.8595416821736 C400.6165001431102,399.9080029644066 405.44839447868947,395.07610862882734 411.39993319645646,395.07610862882734 C417.3514719142234,395.07610862882734 422.1833662498027,399.9080029644066 422.1833662498027,405.8595416821736 Z" fill="none" stroke="#000000" stroke-width="1.428" stroke-linecap="round" stroke-linejoin="round"/><path d="M229.9585131523244,461.7798388883793 C229.9585131523244,467.7313776061463 225.12661881674515,472.56327194172553 219.17508009897819,472.56327194172553 C213.2235413812112,472.56327194172553 208.39164704563194,467.7313776061463 208.39164704563194,461.7798388883793 C208.39164704563194,455.8283001706123 213.2235413812112,450.99640583503304 219.17508009897819,450.99640583503304 C225.12661881674515,450.99640583503304 229.9585131523244,455.8283001706123 229.9585131523244,461.7798388883793 Z" fill="none" stroke="#000000" stroke-width="1.428" stroke-linecap="round" stroke-linejoin="round"/><path d="M336.9085506374168,285.91035015848524 C336.9085506374168,291.86188887625224 332.07665630183755,296.6937832118315 326.12511758407055,296.6937832118315 C320.17357886630356,296.6937832118315 315.3416845307243,291.86188887625224 315.3416845307243,285.91035015848524 C315.3416845307243,279.95881144071825 320.17357886630356,275.126917105139 326.12511758407055,275.126917105139 C332.07665630183755,275.126917105139 336.9085506374168,279.95881144071825 336.9085506374168,285.91035015848524 Z" fill="none" stroke="#000000" stroke-width="1.428" stroke-linecap="round" stroke-linejoin="round"/><path d="M377.8546452761984,493.23299767893286 C377.8546452761984,499.18453639669985 373.0227509406192,504.0164307322791 367.0712122228522,504.0164307322791 C361.1196735050852,504.0164307322791 356.28777916950594,499.18453639669985 356.28777916950594,493.23299767893286 C356.28777916950594,487.28145896116587 361.1196735050852,482.4495646255866 367.0712122228522,482.4495646255866 C373.0227509406192,482.4495646255866 377.8546452761984,487.28145896116587 377.8546452761984,493.23299767893286 Z" fill="none" stroke="#000000" stroke-width="1.428" stroke-linecap="round" stroke-linejoin="round"/><path d="M203.337435330218,364.80461828084196 C203.337435330218,370.75615699860896 198.50554099463875,375.5880513341882 192.55400227687176,375.5880513341882 C186.6024635591048,375.5880513341882 181.77056922352554,370.75615699860896 181.77056922352554,364.80461828084196 C181.77056922352554,358.853079563075 186.6024635591048,354.0211852274957 192.55400227687176,354.0211852274957 C198.50554099463875,354.0211852274957 203.337435330218,358.853079563075 203.337435330218,364.80461828084196 Z" fill="none" stroke="#000000" stroke-width="1.428" stroke-linecap="round" stroke-linejoin="round"/><path d="M423.9715835323487,341.1087978188606 C423.9715835323487,347.0603365366276 419.13968919676944,351.8922308722068 413.18815047900245,351.8922308722068 C407.23661176123545,351.8922308722068 402.4047174256562,347.0603365366276 402.4047174256562,341.1087978188606 C402.4047174256562,335.1572591010936 407.23661176123545,330.32536476551434 413.18815047900245,330.32536476551434 C419.13968919676944,330.32536476551434 423.9715835323487,335.1572591010936 423.9715835323487,341.1087978188606 Z" fill="none" stroke="#000000" stroke-width="1.428" stroke-linecap="round" stroke-linejoin="round"/><path d="M273.8816905085889,511.4165568998805 C273.8816905085889,517.3680956176474 269.04979617300967,522.1999899532268 263.0982574552427,522.1999899532268 C257.1467187374757,522.1999899532268 252.31482440189646,517.3680956176474 252.31482440189646,511.4165568998805 C252.31482440189646,505.4650181821135 257.1467187374757,500.63312384653426 263.0982574552427,500.63312384653426 C269.04979617300967,500.63312384653426 273.8816905085889,505.4650181821135 273.8816905085889,511.4165568998805 Z" fill="none" stroke="#000000" stroke-width="1.428" stroke-linecap="round" stroke-linejoin="round"/><path d="M269.45865615143555,279.4620059758005 C269.45865615143555,285.4135446935675 264.62676181585624,290.2454390291467 258.67522309808925,290.2454390291467 C252.72368438032228,290.2454390291467 247.89179004474306,285.4135446935675 247.89179004474306,279.4620059758005 C247.89179004474306,273.5104672580335 252.72368438032228,268.67857292245424 258.67522309808925,268.67857292245424 C264.62676181585624,268.67857292245424 269.45865615143555,273.5104672580335 269.45865615143555,279.4620059758005 Z" fill="none" stroke="#000000" stroke-width="1.428" stroke-linecap="round" stroke-linejoin="round"/><path d="M432.74238109575475,451.07684058565815 C432.74238109575475,457.02837930342514 427.9104867601755,461.8602736390044 421.9589480424085,461.8602736390044 C416.0074093246415,461.8602736390044 411.17551498906226,457.02837930342514 411.17551498906226,451.07684058565815 C411.17551498906226,445.12530186789115 416.0074093246415,440.2934075323119 421.9589480424085,440.2934075323119 C427.9104867601755,440.2934075323119 432.74238109575475,445.12530186789115 432.74238109575475,451.07684058565815 Z" fill="none" stroke="#000000" stroke-width="1.428" stroke-linecap="round" stroke-linejoin="round"/><path d="M191.6449373462864,434.46414346081514 C191.6449373462864,440.41568217858213 186.81304301070716,445.24757651416144 180.8615042929402,445.24757651416144 C174.9099655751732,445.24757651416144 170.07807123959398,440.41568217858213 170.07807123959398,434.46414346081514 C170.07807123959398,428.5126047430482 174.9099655751732,423.6807104074689 180.8615042929402,423.6807104074689 C186.81304301070716,423.6807104074689 191.6449373462864,428.5126047430482 191.6449373462864,434.46414346081514 Z" fill="none" stroke="#000000" stroke-width="1.428" stroke-linecap="round" stroke-linejoin="round"/><path d="M384.3373102949986,280.9573794212781 C384.3373102949986,286.9089181390451 379.50541595941934,291.74081247462436 373.55387724165234,291.74081247462436 C367.60233852388535,291.74081247462436 362.7704441883061,286.9089181390451 362.7704441883061,280.9573794212781 C362.7704441883061,275.0058407035111 367.60233852388535,270.1739463679319 373.55387724165234,270.1739463679319 C379.50541595941934,270.1739463679319 384.3373102949986,275.0058407035111 384.3373102949986,280.9573794212781 Z" fill="none" stroke="#000000" stroke-width="1.428" stroke-linecap="round" stroke-linejoin="round"/><path d="M345.19341347922983,528.8548129809415 C345.19341347922983,534.8063516987083 340.3615191436506,539.6382460342877 334.4099804258836,539.6382460342877 C328.4584417081166,539.6382460342877 323.62654737253735,534.8063516987083 323.62654737253735,528.8548129809415 C323.62654737253735,522.9032742631745 328.4584417081166,518.0713799275952 334.4099804258836,518.0713799275952 C340.3615191436506,518.0713799275952 345.19341347922983,522.9032742631745 345.19341347922983,528.8548129809415 Z" fill="none" stroke="#000000" stroke-width="1.428" stroke-linecap="round" stroke-linejoin="round"/><path d="M204.1333801298993,315.8333527185738 C204.1333801298993,321.7848914363408 199.3014857943201,326.61678577192004 193.3499470765531,326.61678577192004 C187.39840835878613,326.61678577192004 182.56651402320688,321.7848914363408 182.56651402320688,315.8333527185738 C182.56651402320688,309.8818140008068 187.39840835878613,305.04991966522755 193.3499470765531,305.04991966522755 C199.3014857943201,305.04991966522755 204.1333801298993,309.8818140008068 204.1333801298993,315.8333527185738 Z" fill="none" stroke="#000000" stroke-width="1.428" stroke-linecap="round" stroke-linejoin="round"/><path d="M456.34561836590575,378.72806812244824 C456.34561836590575,384.67960684021523 451.5137240303265,389.5115011757945 445.5621853125595,389.5115011757945 C439.6106465947925,389.5115011757945 434.77875225921326,384.67960684021523 434.77875225921326,378.72806812244824 C434.77875225921326,372.77652940468124 439.6106465947925,367.944635069102 445.5621853125595,367.944635069102 C451.5137240303265,367.944635069102 456.34561836590575,372.77652940468124 456.34561836590575,378.72806812244824 Z" fill="none" stroke="#000000" stroke-width="1.428" stroke-linecap="round" stroke-linejoin="round"/><path d="M224.0334124623043,504.77754511093406 C224.0334124623043,510.72908382870105 219.2015181267251,515.5609781642804 213.2499794089581,515.5609781642804 C207.29844069119113,515.5609781642804 202.46654635561188,510.72908382870105 202.46654635561188,504.77754511093406 C202.46654635561188,498.8260063931671 207.29844069119113,493.9941120575878 213.2499794089581,493.9941120575878 C219.2015181267251,493.9941120575878 224.0334124623043,498.8260063931671 224.0334124623043,504.77754511093406 Z" fill="none" stroke="#000000" stroke-width="1.428" stroke-linecap="round" stroke-linejoin="round"/><path d="M311.6148353963757,250.85316511111805 C311.6148353963757,256.804703828885 306.7829410607964,261.63659816446426 300.8314023430295,261.63659816446426 C294.8798636252625,261.63659816446426 290.0479692896832,256.804703828885 290.0479692896832,250.85316511111805 C290.0479692896832,244.90162639335105 294.8798636252625,240.06973205777183 300.8314023430295,240.06973205777183 C306.7829410607964,240.06973205777183 311.6148353963757,244.90162639335105 311.6148353963757,250.85316511111805 Z" fill="none" stroke="#000000" stroke-width="1.428" stroke-linecap="round" stroke-linejoin="round"/><path d="M420.21913812868723,501.14071730574733 C420.21913812868723,507.0922560235143 415.387243793108,511.9241503590936 409.435705075341,511.9241503590936 C403.484166357574,511.9241503590936 398.65227202199475,507.0922560235143 398.65227202199475,501.14071730574733 C398.65227202199475,495.18917858798034 403.484166357574,490.3572842524011 409.435705075341,490.3572842524011 C415.387243793108,490.3572842524011 420.21913812868723,495.18917858798034 420.21913812868723,501.14071730574733 Z" fill="none" stroke="#000000" stroke-width="1.428" stroke-linecap="round" stroke-linejoin="round"/><path d="M167.27659053928699,388.22716258524025 C167.27659053928699,394.1787013030072 162.44469620370776,399.0105956385865 156.49315748594077,399.0105956385865 C150.54161876817378,399.0105956385865 145.70972443259456,394.1787013030072 145.70972443259456,388.22716258524025 C145.70972443259456,382.27562386747326 150.54161876817378,377.443729531894 156.49315748594077,377.443729531894 C162.44469620370776,377.443729531894 167.27659053928699,382.27562386747326 167.27659053928699,388.22716258524025 Z" fill="none" stroke="#000000" stroke-width="1.428" stroke-linecap="round" stroke-linejoin="round"/><path d="M433.96170826899686,299.35031186038293 C433.96170826899686,305.3018505781499 429.1298139334176,310.1337449137292 423.1782752156506,310.1337449137292 C417.2267364978837,310.1337449137292 412.39484216230437,305.3018505781499 412.39484216230437,299.35031186038293 C412.39484216230437,293.39877314261594 417.2267364978837,288.5668788070367 423.1782752156506,288.5668788070367 C429.1298139334176,288.5668788070367 433.96170826899686,293.39877314261594 433.96170826899686,299.35031186038293 Z" fill="none" stroke="#000000" stroke-width="1.428" stroke-linecap="round" stroke-linejoin="round"/><path d="M295.3661893817576,548.5529728111248 C295.3661893817576,554.5045115288917 290.53429504617833,559.3364058644711 284.58275632841134,559.3364058644711 C278.63121761064434,559.3364058644711 273.7993232750651,554.5045115288917 273.7993232750651,548.5529728111248 C273.7993232750651,542.6014340933579 278.63121761064434,537.7695397577786 284.58275632841134,537.7695397577786 C290.53429504617833,537.7695397577786 295.3661893817576,542.6014340933579 295.3661893817576,548.5529728111248 Z" fill="none" stroke="#000000" stroke-width="1.428" stroke-linecap="round" stroke-linejoin="round"/><path d="M228.32420652240927,267.2938598141162 C228.32420652240927,273.2453985318832 223.49231218683002,278.07729286746246 217.54077346906305,278.07729286746246 C211.58923475129606,278.07729286746246 206.75734041571684,273.2453985318832 206.75734041571684,267.2938598141162 C206.75734041571684,261.3423210963492 211.58923475129606,256.51042676077 217.54077346906305,256.51042676077 C223.49231218683002,256.51042676077 228.32420652240927,261.3423210963492 228.32420652240927,267.2938598141162 Z" fill="none" stroke="#000000" stroke-width="1.428" stroke-linecap="round" stroke-linejoin="round"/><path d="M470.9928613526506,431.6223938499606 C470.9928613526506,437.5739325677275 466.1609670170713,442.40582690330683 460.2094282993043,442.40582690330683 C454.25788958153737,442.40582690330683 449.42599524595806,437.5739325677275 449.42599524595806,431.6223938499606 C449.42599524595806,425.6708551321936 454.25788958153737,420.83896079661434 460.2094282993043,420.83896079661434 C466.1609670170713,420.83896079661434 470.9928613526506,425.6708551321936 470.9928613526506,431.6223938499606 Z" fill="none" stroke="#000000" stroke-width="1.428" stroke-linecap="round" stroke-linejoin="round"/><path d="M177.21060342385013,474.9184730542581 C177.21060342385013,480.87001177202507 172.3787090882709,485.7019061076043 166.42717037050392,485.7019061076043 C160.47563165273695,485.7019061076043 155.6437373171577,480.87001177202507 155.6437373171577,474.9184730542581 C155.6437373171577,468.9669343364911 160.47563165273695,464.13504000091183 166.42717037050392,464.13504000091183 C172.3787090882709,464.13504000091183 177.21060342385013,468.9669343364911 177.21060342385013,474.9184730542581 Z" fill="none" stroke="#000000" stroke-width="1.428" stroke-linecap="round" stroke-linejoin="round"/><path d="M367.02340576083157,241.58548402967057 C367.02340576083157,247.53702274743753 362.1915114252523,252.36891708301678 356.2399727074853,252.36891708301678 C350.2884339897183,252.36891708301678 345.4565396541391,247.53702274743753 345.4565396541391,241.58548402967057 C345.4565396541391,235.63394531190357 350.2884339897183,230.80205097632435 356.2399727074853,230.80205097632435 C362.1915114252523,230.80205097632435 367.02340576083157,235.63394531190357 367.02340576083157,241.58548402967057 Z" fill="none" stroke="#000000" stroke-width="1.428" stroke-linecap="round" stroke-linejoin="round"/><path d="M384.87910898448456,545.6331312226052 C384.87910898448456,551.5846699403721 380.0472146489053,556.4165642759515 374.0956759311383,556.4165642759515 C368.1441372133713,556.4165642759515 363.3122428777921,551.5846699403721 363.3122428777921,545.6331312226052 C363.3122428777921,539.6815925048381 368.1441372133713,534.849698169259 374.0956759311383,534.849698169259 C380.0472146489053,534.849698169259 384.87910898448456,539.6815925048381 384.87910898448456,545.6331312226052 Z" fill="none" stroke="#000000" stroke-width="1.428" stroke-linecap="round" stroke-linejoin="round"/><path d="M163.6622199115057,330.88328504929757 C163.6622199115057,336.83482376706456 158.83032557592645,341.6667181026438 152.8787868581595,341.6667181026438 C146.9272481403925,341.6667181026438 142.09535380481327,336.83482376706456 142.09535380481327,330.88328504929757 C142.09535380481327,324.9317463315306 146.9272481403925,320.0998519959513 152.8787868581595,320.0998519959513 C158.83032557592645,320.0998519959513 163.6622199115057,324.9317463315306 163.6622199115057,330.88328504929757 Z" fill="none" stroke="#000000" stroke-width="1.428" stroke-linecap="round" stroke-linejoin="round"/><path d="M475.53274005707243,339.92730213520406 C475.53274005707243,345.87884085297105 470.7008457214932,350.7107351885503 464.7493070037262,350.7107351885503 C458.7977682859592,350.7107351885503 453.96587395037994,345.87884085297105 453.96587395037994,339.92730213520406 C453.96587395037994,333.97576341743707 458.7977682859592,329.1438690818578 464.7493070037262,329.1438690818578 C470.7008457214932,329.1438690818578 475.53274005707243,333.97576341743707 475.53274005707243,339.92730213520406 Z" fill="none" stroke="#000000" stroke-width="1.428" stroke-linecap="round" stroke-linejoin="round"/><path d="M236.68778897993454,546.2976219388229 C236.68778897993454,552.2491606565899 231.85589464435532,557.0810549921691 225.90435592658832,557.0810549921691 C219.95281720882133,557.0810549921691 215.1209228732421,552.2491606565899 215.1209228732421,546.2976219388229 C215.1209228732421,540.3460832210559 219.95281720882133,535.5141888854766 225.90435592658832,535.5141888854766 C231.85589464435532,535.5141888854766 236.68778897993454,540.3460832210559 236.68778897993454,546.2976219388229 Z" fill="none" stroke="#000000" stroke-width="1.428" stroke-linecap="round" stroke-linejoin="round"/><path d="M273.8390427419425,229.2077215792595 C273.8390427419425,235.1592602970265 269.0071484063632,239.9911546326057 263.05560968859623,239.9911546326057 C257.1040709708293,239.9911546326057 252.27217663525005,235.1592602970265 252.27217663525005,229.2077215792595 C252.27217663525005,223.2561828614925 257.1040709708293,218.42428852591325 263.05560968859623,218.42428852591325 C269.0071484063632,218.42428852591325 273.8390427419425,223.2561828614925 273.8390427419425,229.2077215792595 Z" fill="none" stroke="#000000" stroke-width="1.428" stroke-linecap="round" stroke-linejoin="round"/><path d="M462.7107369980587,491.0173889529044 C462.7107369980587,496.9689276706714 457.8788426624794,501.80082200625066 451.92730394471243,501.80082200625066 C445.97576522694544,501.80082200625066 441.1438708913662,496.9689276706714 441.1438708913662,491.0173889529044 C441.1438708913662,485.0658502351374 445.97576522694544,480.23395589955817 451.92730394471243,480.23395589955817 C457.8788426624794,480.23395589955817 462.7107369980587,485.0658502351374 462.7107369980587,491.0173889529044 Z" fill="none" stroke="#000000" stroke-width="1.428" stroke-linecap="round" stroke-linejoin="round"/><path d="M143.14066129813057,424.8178329713751 C143.14066129813057,430.769371689142 138.30876696255132,435.6012660247213 132.35722824478435,435.6012660247213 C126.40568952701734,435.6012660247213 121.57379519143811,430.769371689142 121.57379519143811,424.8178329713751 C121.57379519143811,418.8662942536081 126.40568952701734,414.03439991802884 132.35722824478435,414.03439991802884 C138.30876696255132,414.03439991802884 143.14066129813057,418.8662942536081 143.14066129813057,424.8178329713751 Z" fill="none" stroke="#000000" stroke-width="1.428" stroke-linecap="round" stroke-linejoin="round"/><path d="M426.5049908719537,255.99051150062016 C426.5049908719537,261.9420502183872 421.6730965363744,266.77394455396643 415.72155781860744,266.77394455396643 C409.77001910084044,266.77394455396643 404.93812476526114,261.9420502183872 404.93812476526114,255.99051150062016 C404.93812476526114,250.0389727828532 409.77001910084044,245.20707844727394 415.72155781860744,245.20707844727394 C421.6730965363744,245.20707844727394 426.5049908719537,250.0389727828532 426.5049908719537,255.99051150062016 Z" fill="none" stroke="#000000" stroke-width="1.428" stroke-linecap="round" stroke-linejoin="round"/><path d="M330.59488127340205,575.1924062511152 C330.59488127340205,581.1439449688822 325.7629869378228,585.9758393044615 319.8114482200558,585.9758393044615 C313.8599095022888,585.9758393044615 309.02801516670957,581.1439449688822 309.02801516670957,575.1924062511152 C309.02801516670957,569.2408675333483 313.8599095022888,564.408973197769 319.8114482200558,564.408973197769 C325.7629869378228,564.408973197769 330.59488127340205,569.2408675333483 330.59488127340205,575.1924062511152 Z" fill="none" stroke="#000000" stroke-width="1.428" stroke-linecap="round" stroke-linejoin="round"/><path d="M184.22428317052314,271.95184893621655 C184.22428317052314,277.90338765398354 179.3923888349439,282.73528198956274 173.44085011717692,282.73528198956274 C167.48931139940993,282.73528198956274 162.65741706383068,277.90338765398354 162.65741706383068,271.95184893621655 C162.65741706383068,266.0003102184496 167.48931139940993,261.16841588287036 173.44085011717692,261.16841588287036 C179.3923888349439,261.16841588287036 184.22428317052314,266.0003102184496 184.22428317052314,271.95184893621655 Z" fill="none" stroke="#000000" stroke-width="1.428" stroke-linecap="round" stroke-linejoin="round"/><path d="M500.128142617568,397.94599969454464 C500.128142617568,403.89753841231163 495.29624828198877,408.7294327478909 489.3447095642218,408.7294327478909 C483.3931708464548,408.7294327478909 478.56127651087553,403.89753841231163 478.56127651087553,397.94599969454464 C478.56127651087553,391.99446097677765 483.3931708464548,387.1625666411984 489.3447095642218,387.1625666411984 C495.29624828198877,387.1625666411984 500.128142617568,391.99446097677765 500.128142617568,397.94599969454464 Z" fill="none" stroke="#000000" stroke-width="1.428" stroke-linecap="round" stroke-linejoin="round"/><path d="M178.94443738508775,519.6069502623773 C178.94443738508775,525.5584889801443 174.11254304950853,530.3903833157235 168.16100433174154,530.3903833157235 C162.20946561397454,530.3903833157235 157.37757127839532,525.5584889801443 157.37757127839532,519.6069502623773 C157.37757127839532,513.6554115446103 162.20946561397454,508.823517209031 168.16100433174154,508.823517209031 C174.11254304950853,508.823517209031 178.94443738508775,513.6554115446103 178.94443738508775,519.6069502623773 Z" fill="none" stroke="#000000" stroke-width="1.428" stroke-linecap="round" stroke-linejoin="round"/><path d="M335.0999435710223,209.98395294368862 C335.0999435710223,215.93549166145561 330.2680492354431,220.76738599703486 324.3165105176761,220.76738599703486 C318.36497179990914,220.76738599703486 313.53307746432984,215.93549166145561 313.53307746432984,209.98395294368862 C313.53307746432984,204.03241422592163 318.36497179990914,199.2005198903424 324.3165105176761,199.2005198903424 C330.2680492354431,199.2005198903424 335.0999435710223,204.03241422592163 335.0999435710223,209.98395294368862 Z" fill="none" stroke="#000000" stroke-width="1.428" stroke-linecap="round" stroke-linejoin="round"/><path d="M429.9824798828008,546.9391849617023 C429.9824798828008,552.8907236794691 425.15058554722157,557.7226180150485 419.1990468294546,557.7226180150485 C413.2475081116876,557.7226180150485 408.41561377610833,552.8907236794691 408.41561377610833,546.9391849617023 C408.41561377610833,540.9876462439352 413.2475081116876,536.155751908356 419.1990468294546,536.155751908356 C425.15058554722157,536.155751908356 429.9824798828008,540.9876462439352 429.9824798828008,546.9391849617023 Z" fill="none" stroke="#000000" stroke-width="1.428" stroke-linecap="round" stroke-linejoin="round"/><path d="M129.64697992517588,360.8459517180723 C129.64697992517588,366.7974904358393 124.81508558959665,371.62938477141853 118.86354687182966,371.62938477141853 C112.91200815406266,371.62938477141853 108.08011381848343,366.7974904358393 108.08011381848343,360.8459517180723 C108.08011381848343,354.89441300030535 112.91200815406266,350.0625186647261 118.86354687182966,350.0625186647261 C124.81508558959665,350.0625186647261 129.64697992517588,354.89441300030535 129.64697992517588,360.8459517180723 Z" fill="none" stroke="#000000" stroke-width="1.428" stroke-linecap="round" stroke-linejoin="round"/><path d="M479.9819412799541,294.6032369717366 C479.9819412799541,300.5547756895036 475.1500469443748,305.38667002508276 469.1985082266079,305.38667002508276 C463.2469695088409,305.38667002508276 458.4150751732616,300.5547756895036 458.4150751732616,294.6032369717366 C458.4150751732616,288.6516982539696 463.2469695088409,283.81980391839033 469.1985082266079,283.81980391839033 C475.1500469443748,283.81980391839033 479.9819412799541,288.6516982539696 479.9819412799541,294.6032369717366 Z" fill="none" stroke="#000000" stroke-width="1.428" stroke-linecap="round" stroke-linejoin="round"/><path d="M264.477608178015,582.6503543101678 C264.477608178015,588.6018930279348 259.6457138424357,593.433787363514 253.69417512466876,593.433787363514 C247.74263640690177,593.433787363514 242.91074207132255,588.6018930279348 242.91074207132255,582.6503543101678 C242.91074207132255,576.6988155924009 247.74263640690177,571.8669212568216 253.69417512466876,571.8669212568216 C259.6457138424357,571.8669212568216 264.477608178015,576.6988155924009 264.477608178015,582.6503543101678 Z" fill="none" stroke="#000000" stroke-width="1.428" stroke-linecap="round" stroke-linejoin="round"/><path d="M228.5073078594821,221.5271446878993 C228.5073078594821,227.4786834056663 223.67541352390288,232.3105777412455 217.72387480613588,232.3105777412455 C211.7723360883689,232.3105777412455 206.94044175278967,227.4786834056663 206.94044175278967,221.5271446878993 C206.94044175278967,215.5756059701323 211.7723360883689,210.74371163455305 217.72387480613588,210.74371163455305 C223.67541352390288,210.74371163455305 228.5073078594821,215.5756059701323 228.5073078594821,221.5271446878993 Z" fill="none" stroke="#000000" stroke-width="1.428" stroke-linecap="round" stroke-linejoin="round"/><path d="M501.3006083207257,465.61365520748893 C501.3006083207257,471.5651939252559 496.46871398514645,476.3970882608352 490.51717526737946,476.3970882608352 C484.56563654961246,476.3970882608352 479.7337422140332,471.5651939252559 479.7337422140332,465.61365520748893 C479.7337422140332,459.662116489722 484.56563654961246,454.8302221541427 490.51717526737946,454.8302221541427 C496.46871398514645,454.8302221541427 501.3006083207257,459.662116489722 501.3006083207257,465.61365520748893 Z" fill="none" stroke="#000000" stroke-width="1.428" stroke-linecap="round" stroke-linejoin="round"/><path d="M132.15785098701784,469.92726727445995 C132.15785098701784,475.87880599222694 127.32595665143863,480.7107003278062 121.37441793367164,480.7107003278062 C115.42287921590464,480.7107003278062 110.59098488032541,475.87880599222694 110.59098488032541,469.92726727445995 C110.59098488032541,463.97572855669296 115.42287921590464,459.1438342211137 121.37441793367164,459.1438342211137 C127.32595665143863,459.1438342211137 132.15785098701784,463.97572855669296 132.15785098701784,469.92726727445995 Z" fill="none" stroke="#000000" stroke-width="1.428" stroke-linecap="round" stroke-linejoin="round"/><path d="M403.6988048603938,215.28817973457666 C403.6988048603938,221.23971845234365 398.86691052481456,226.07161278792287 392.91537180704756,226.07161278792287 C386.96383308928057,226.07161278792287 382.1319387537013,221.23971845234365 382.1319387537013,215.28817973457666 C382.1319387537013,209.33664101680966 386.96383308928057,204.50474668123042 392.91537180704756,204.50474668123042 C398.86691052481456,204.50474668123042 403.6988048603938,209.33664101680966 403.6988048603938,215.28817973457666 Z" fill="none" stroke="#000000" stroke-width="1.428" stroke-linecap="round" stroke-linejoin="round"/><path d="M375.237140667059,589.5288230373206 C375.237140667059,595.4803617550876 370.4052463314797,600.3122560906669 364.45370761371277,600.3122560906669 C358.5021688959458,600.3122560906669 353.67027456036647,595.4803617550876 353.67027456036647,589.5288230373206 C353.67027456036647,583.5772843195537 358.5021688959458,578.7453899839744 364.45370761371277,578.7453899839744 C370.4052463314797,578.7453899839744 375.237140667059,583.5772843195537 375.237140667059,589.5288230373206 Z" fill="none" stroke="#000000" stroke-width="1.428" stroke-linecap="round" stroke-linejoin="round"/><path d="M141.5584090472589,291.9537137516859 C141.5584090472589,297.9052524694529 136.72651471167967,302.73714680503207 130.77497599391268,302.73714680503207 C124.82343727614568,302.73714680503207 119.99154294056645,297.9052524694529 119.99154294056645,291.9537137516859 C119.99154294056645,286.0021750339189 124.82343727614568,281.17028069833964 130.77497599391268,281.17028069833964 C136.72651471167967,281.17028069833964 141.5584090472589,286.0021750339189 141.5584090472589,291.9537137516859 Z" fill="none" stroke="#000000" stroke-width="1.428" stroke-linecap="round" stroke-linejoin="round"/><path d="M517.8481716204676,354.02849698980157 C517.8481716204676,359.98003570756856 513.0162772848884,364.8119300431478 507.0647385671214,364.8119300431478 C501.11319984935443,364.8119300431478 496.2813055137752,359.98003570756856 496.2813055137752,354.02849698980157 C496.2813055137752,348.0769582720346 501.11319984935443,343.2450639364554 507.0647385671214,343.2450639364554 C513.0162772848884,343.2450639364554 517.8481716204676,348.0769582720346 517.8481716204676,354.02849698980157 Z" fill="none" stroke="#000000" stroke-width="1.428" stroke-linecap="round" stroke-linejoin="round"/><path d="M195.9427486106832,564.0635670912311 C195.9427486106832,570.015105808998 191.11085427510395,574.8470001445774 185.15931555733698,574.8470001445774 C179.20777683957,574.8470001445774 174.37588250399077,570.015105808998 174.37588250399077,564.0635670912311 C174.37588250399077,558.112028373464 179.20777683957,553.2801340378849 185.15931555733698,553.2801340378849 C191.11085427510395,553.2801340378849 195.9427486106832,558.112028373464 195.9427486106832,564.0635670912311 Z" fill="none" stroke="#000000" stroke-width="1.428" stroke-linecap="round" stroke-linejoin="round"/><path d="M292.17514660389776,188.87331587160992 C292.17514660389776,194.8248545893769 287.34325226831845,199.65674892495613 281.39171355055146,199.65674892495613 C275.4401748327845,199.65674892495613 270.6082804972052,194.8248545893769 270.6082804972052,188.87331587160992 C270.6082804972052,182.92177715384292 275.4401748327845,178.08988281826367 281.39171355055146,178.08988281826367 C287.34325226831845,178.08988281826367 292.17514660389776,182.92177715384292 292.17514660389776,188.87331587160992 Z" fill="none" stroke="#000000" stroke-width="1.428" stroke-linecap="round" stroke-linejoin="round"/><path d="M476.0337857689898,533.1333425536734 C476.0337857689898,539.0848812714403 471.20189143341054,543.9167756070196 465.25035271564354,543.9167756070196 C459.29881399787655,543.9167756070196 454.4669196622973,539.0848812714403 454.4669196622973,533.1333425536734 C454.4669196622973,527.1818038359063 459.29881399787655,522.3499095003272 465.25035271564354,522.3499095003272 C471.20189143341054,522.3499095003272 476.0337857689898,527.1818038359063 476.0337857689898,533.1333425536734 Z" fill="none" stroke="#000000" stroke-width="1.428" stroke-linecap="round" stroke-linejoin="round"/><path d="M105.16314251625703,402.5021960134981 C105.16314251625703,408.45373473126506 100.33124818067779,413.28562906684436 94.3797094629108,413.28562906684436 C88.42817074514379,413.28562906684436 83.59627640956455,408.45373473126506 83.59627640956455,402.5021960134981 C83.59627640956455,396.5506572957311 88.42817074514379,391.7187629601519 94.3797094629108,391.7187629601519 C100.33124818067779,391.7187629601519 105.16314251625703,396.5506572957311 105.16314251625703,402.5021960134981 Z" fill="none" stroke="#000000" stroke-width="1.428" stroke-linecap="round" stroke-linejoin="round"/><path d="M469.5444831669334,247.1756574743429 C469.5444831669334,253.1271961921099 464.71258883135414,257.9590905276891 458.76105011358715,257.9590905276891 C452.80951139582015,257.9590905276891 447.9776170602409,253.1271961921099 447.9776170602409,247.1756574743429 C447.9776170602409,241.22411875657593 452.80951139582015,236.39222442099668 458.76105011358715,236.39222442099668 C464.71258883135414,236.39222442099668 469.5444831669334,241.22411875657593 469.5444831669334,247.1756574743429 Z" fill="none" stroke="#000000" stroke-width="1.428" stroke-linecap="round" stroke-linejoin="round"/><path d="M304.5841365613775,610.4644445242639 C304.5841365613775,616.4159832420307 299.75224222579817,621.24787757761 293.80070350803123,621.24787757761 C287.84916479026424,621.24787757761 283.01727045468493,616.4159832420307 283.01727045468493,610.4644445242639 C283.01727045468493,604.5129058064969 287.84916479026424,599.6810114709176 293.80070350803123,599.6810114709176 C299.75224222579817,599.6810114709176 304.5841365613775,604.5129058064969 304.5841365613775,610.4644445242639 Z" fill="none" stroke="#000000" stroke-width="1.428" stroke-linecap="round" stroke-linejoin="round"/><path d="M179.94308214485255,228.43587316122728 C179.94308214485255,234.38741187899427 175.1111878092733,239.2193062145735 169.15964909150634,239.2193062145735 C163.20811037373934,239.2193062145735 158.37621603816012,234.38741187899427 158.37621603816012,228.43587316122728 C158.37621603816012,222.4843344434603 163.20811037373934,217.65244010788106 169.15964909150634,217.65244010788106 C175.1111878092733,217.65244010788106 179.94308214485255,222.4843344434603 179.94308214485255,228.43587316122728 Z" fill="none" stroke="#000000" stroke-width="1.428" stroke-linecap="round" stroke-linejoin="round"/><path d="M532.3755931191905,427.34064769821083 C532.3755931191905,433.29218641597777 527.5436987836113,438.1240807515571 521.5921600658443,438.1240807515571 C515.6406213480773,438.1240807515571 510.808727012498,433.29218641597777 510.808727012498,427.34064769821083 C510.808727012498,421.38910898044384 515.6406213480773,416.55721464486453 521.5921600658443,416.55721464486453 C527.5436987836113,416.55721464486453 532.3755931191905,421.38910898044384 532.3755931191905,427.34064769821083 Z" fill="none" stroke="#000000" stroke-width="1.428" stroke-linecap="round" stroke-linejoin="round"/><path d="M135.39551338538604,519.3686982930824 C135.39551338538604,525.3202370108495 130.5636190498068,530.1521313464286 124.61208033203981,530.1521313464286 C118.66054161427282,530.1521313464286 113.82864727869358,525.3202370108495 113.82864727869358,519.3686982930824 C113.82864727869358,513.4171595753155 118.66054161427282,508.5852652397362 124.61208033203981,508.5852652397362 C130.5636190498068,508.5852652397362 135.39551338538604,513.4171595753155 135.39551338538604,519.3686982930824 Z" fill="none" stroke="#000000" stroke-width="1.428" stroke-linecap="round" stroke-linejoin="round"/><path d="M367.543018312589,181.0486681494863 C367.543018312589,187.0002068672533 362.7111239770098,191.83210120283252 356.7595852592428,191.83210120283252 C350.80804654147585,191.83210120283252 345.97615220589654,187.0002068672533 345.97615220589654,181.0486681494863 C345.97615220589654,175.0971294317193 350.80804654147585,170.2652350961401 356.7595852592428,170.2652350961401 C362.7111239770098,170.2652350961401 367.543018312589,175.0971294317193 367.543018312589,181.0486681494863 Z" fill="none" stroke="#000000" stroke-width="1.428" stroke-linecap="round" stroke-linejoin="round"/><path d="M425.27815839396055,590.0842666814203 C425.27815839396055,596.0358053991872 420.44626405838125,600.8676997347666 414.4947253406143,600.8676997347666 C408.5431866228473,600.8676997347666 403.71129228726807,596.0358053991872 403.71129228726807,590.0842666814203 C403.71129228726807,584.1327279636533 408.5431866228473,579.3008336280741 414.4947253406143,579.3008336280741 C420.44626405838125,579.3008336280741 425.27815839396055,584.1327279636533 425.27815839396055,590.0842666814203 Z" fill="none" stroke="#000000" stroke-width="1.428" stroke-linecap="round" stroke-linejoin="round"/><path d="M104.27806974483569,325.7114802750979 C104.27806974483569,331.6630189928649 99.44617540925645,336.49491332844417 93.49463669148946,336.49491332844417 C87.54309797372247,336.49491332844417 82.71120363814323,331.6630189928649 82.71120363814323,325.7114802750979 C82.71120363814323,319.759941557331 87.54309797372247,314.92804722175174 93.49463669148946,314.92804722175174 C99.44617540925645,314.92804722175174 104.27806974483569,319.759941557331 104.27806974483569,325.7114802750979 Z" fill="none" stroke="#000000" stroke-width="1.428" stroke-linecap="round" stroke-linejoin="round"/><path d="M522.2963478566033,303.6818288251484 C522.2963478566033,309.6333675429154 517.4644535210241,314.46526187849463 511.51291480325705,314.46526187849463 C505.56137608549005,314.46526187849463 500.7294817499108,309.6333675429154 500.7294817499108,303.6818288251484 C500.7294817499108,297.7302901073814 505.56137608549005,292.89839577180214 511.51291480325705,292.89839577180214 C517.4644535210241,292.89839577180214 522.2963478566033,297.7302901073814 522.2963478566033,303.6818288251484 Z" fill="none" stroke="#000000" stroke-width="1.428" stroke-linecap="round" stroke-linejoin="round"/><path d="M227.02741916718398,604.2336627235545 C227.02741916718398,610.1852014413215 222.19552483160473,615.0170957769008 216.24398611383774,615.0170957769008 C210.29244739607077,615.0170957769008 205.46055306049152,610.1852014413215 205.46055306049152,604.2336627235545 C205.46055306049152,598.2821240057875 210.29244739607077,593.4502296702083 216.24398611383774,593.4502296702083 C222.19552483160473,593.4502296702083 227.02741916718398,598.2821240057875 227.02741916718398,604.2336627235545 Z" fill="none" stroke="#000000" stroke-width="1.428" stroke-linecap="round" stroke-linejoin="round"/><path d="M241.8310130124427,180.45712145836978 C241.8310130124427,186.40866017613678 236.99911867686347,191.24055451171603 231.04757995909648,191.24055451171603 C225.0960412413295,191.24055451171603 220.26414690575027,186.40866017613678 220.26414690575027,180.45712145836978 C220.26414690575027,174.5055827406028 225.0960412413295,169.67368840502357 231.04757995909648,169.67368840502357 C236.99911867686347,169.67368840502357 241.8310130124427,174.5055827406028 241.8310130124427,180.45712145836978 Z" fill="none" stroke="#000000" stroke-width="1.428" stroke-linecap="round" stroke-linejoin="round"/><path d="M518.9154351527988,504.9882972032637 C518.9154351527988,510.9398359210307 514.0835408172195,515.77173025661 508.1320020994525,515.77173025661 C502.1804633816855,515.77173025661 497.34856904610626,510.9398359210307 497.34856904610626,504.9882972032637 C497.34856904610626,499.0367584854967 502.1804633816855,494.20486414991746 508.1320020994525,494.20486414991746 C514.0835408172195,494.20486414991746 518.9154351527988,499.0367584854967 518.9154351527988,504.9882972032637 Z" fill="none" stroke="#000000" stroke-width="1.428" stroke-linecap="round" stroke-linejoin="round"/><path d="M92.72970557152765,452.52362197792144 C92.72970557152765,458.47516069568843 87.89781123594841,463.3070550312677 81.9462725181814,463.3070550312677 C75.99473380041441,463.3070550312677 71.16283946483517,458.47516069568843 71.16283946483517,452.52362197792144 C71.16283946483517,446.57208326015444 75.99473380041441,441.7401889245752 81.9462725181814,441.7401889245752 C87.89781123594841,441.7401889245752 92.72970557152765,446.57208326015444 92.72970557152765,452.52362197792144 Z" fill="none" stroke="#000000" stroke-width="1.428" stroke-linecap="round" stroke-linejoin="round"/><path d="M444.5942455138765,201.78726535528327 C444.5942455138765,207.73880407305026 439.76235117829725,212.57069840862948 433.81081246053026,212.57069840862948 C427.85927374276326,212.57069840862948 423.027379407184,207.73880407305026 423.027379407184,201.78726535528327 C423.027379407184,195.83572663751627 427.85927374276326,191.00383230193705 433.81081246053026,191.00383230193705 C439.76235117829725,191.00383230193705 444.5942455138765,195.83572663751627 444.5942455138765,201.78726535528327 Z" fill="none" stroke="#000000" stroke-width="1.428" stroke-linecap="round" stroke-linejoin="round"/><path d="M353.9531272912113,626.9367908113899 C353.9531272912113,632.8883295291567 349.121232955632,637.720223864736 343.16969423786503,637.720223864736 C337.21815552009804,637.720223864736 332.3862611845188,632.8883295291567 332.3862611845188,626.9367908113899 C332.3862611845188,620.9852520936229 337.21815552009804,616.1533577580436 343.16969423786503,616.1533577580436 C349.121232955632,616.1533577580436 353.9531272912113,620.9852520936229 353.9531272912113,626.9367908113899 Z" fill="none" stroke="#000000" stroke-width="1.428" stroke-linecap="round" stroke-linejoin="round"/><path d="M132.27856508900956,249.95021856413933 C132.27856508900956,255.9017572819063 127.44667075343034,260.7336516174855 121.49513203566333,260.7336516174855 C115.54359331789634,260.7336516174855 110.7116989823171,255.9017572819063 110.7116989823171,249.95021856413933 C110.7116989823171,243.99867984637234 115.54359331789634,239.16678551079312 121.49513203566333,239.16678551079312 C127.44667075343034,239.16678551079312 132.27856508900956,243.99867984637234 132.27856508900956,249.95021856413933 Z" fill="none" stroke="#000000" stroke-width="1.428" stroke-linecap="round" stroke-linejoin="round"/><path d="M552.8797008749267,378.9607887295055 C552.8797008749267,384.91232744727245 548.0478065393474,389.74422178285175 542.0962678215805,389.74422178285175 C536.1447291038135,389.74422178285175 531.3128347682343,384.91232744727245 531.3128347682343,378.9607887295055 C531.3128347682343,373.0092500117385 536.1447291038135,368.1773556761592 542.0962678215805,368.1773556761592 C548.0478065393474,368.1773556761592 552.8797008749267,373.0092500117385 552.8797008749267,378.9607887295055 Z" fill="none" stroke="#000000" stroke-width="1.428" stroke-linecap="round" stroke-linejoin="round"/><path d="M153.24965692243353,569.0539912985671 C153.24965692243353,575.0055300163341 148.4177625868543,579.8374243519133 142.46622386908732,579.8374243519133 C136.51468515132035,579.8374243519133 131.6827908157411,575.0055300163341 131.6827908157411,569.0539912985671 C131.6827908157411,563.1024525808001 136.51468515132035,558.2705582452209 142.46622386908732,558.2705582452209 C148.4177625868543,558.2705582452209 153.24965692243353,563.1024525808001 153.24965692243353,569.0539912985671 Z" fill="none" stroke="#000000" stroke-width="1.428" stroke-linecap="round" stroke-linejoin="round"/><path d="M320.49324093761174,156.54976591061381 C320.49324093761174,162.5013046283808 315.6613466020325,167.33319896396006 309.7098078842655,167.33319896396006 C303.7582691664985,167.33319896396006 298.92637483091926,162.5013046283808 298.92637483091926,156.54976591061381 C298.92637483091926,150.59822719284682 303.7582691664985,145.7663328572676 309.7098078842655,145.7663328572676 C315.6613466020325,145.7663328572676 320.49324093761174,150.59822719284682 320.49324093761174,156.54976591061381 Z" fill="none" stroke="#000000" stroke-width="1.428" stroke-linecap="round" stroke-linejoin="round"/><path d="M476.7054894681533,576.0952819816757 C476.7054894681533,582.0468206994426 471.87359513257405,586.878715035022 465.92205641480706,586.878715035022 C459.97051769704007,586.878715035022 455.1386233614608,582.0468206994426 455.1386233614608,576.0952819816757 C455.1386233614608,570.1437432639086 459.97051769704007,565.3118489283295 465.92205641480706,565.3118489283295 C471.87359513257405,565.3118489283295 476.7054894681533,570.1437432639086 476.7054894681533,576.0952819816757 Z" fill="none" stroke="#000000" stroke-width="1.428" stroke-linecap="round" stroke-linejoin="round"/><path d="M75.85189915836531,371.0887949907749 C75.85189915836531,377.0403337085419 71.02000482278608,381.87222804412113 65.06846610501907,381.87222804412113 C59.11692738725208,381.87222804412113 54.28503305167285,377.0403337085419 54.28503305167284,371.0887949907749 C54.28503305167284,365.1372562730079 59.116927387252076,360.30536193742864 65.06846610501907,360.30536193742864 C71.02000482278608,360.30536193742864 75.85189915836531,365.1372562730079 75.85189915836531,371.0887949907749 Z" fill="none" stroke="#000000" stroke-width="1.428" stroke-linecap="round" stroke-linejoin="round"/><path d="M512.3556725133468,250.81298696990763 C512.3556725133468,256.76452568767456 507.5237781777675,261.5964200232538 501.5722394600005,261.5964200232538 C495.6207007422335,261.5964200232538 490.78880640665426,256.76452568767456 490.78880640665426,250.81298696990763 C490.78880640665426,244.86144825214063 495.6207007422335,240.02955391656138 501.5722394600005,240.02955391656138 C507.5237781777675,240.02955391656138 512.3556725133468,244.86144825214063 512.3556725133468,250.81298696990763 Z" fill="none" stroke="#000000" stroke-width="1.428" stroke-linecap="round" stroke-linejoin="round"/><path d="M270.3913627759467,636.488550362334 C270.3913627759467,642.440089080101 265.55946844036737,647.2719834156801 259.6079297226004,647.2719834156801 C253.6563910048334,647.2719834156801 248.8244966692542,642.440089080101 248.8244966692542,636.488550362334 C248.8244966692542,630.537011644567 253.6563910048334,625.7051173089877 259.6079297226004,625.7051173089877 C265.55946844036737,625.7051173089877 270.3913627759467,630.537011644567 270.3913627759467,636.488550362334 Z" fill="none" stroke="#000000" stroke-width="1.428" stroke-linecap="round" stroke-linejoin="round"/><path d="M187.84113214459444,186.19044941576925 C187.84113214459444,192.14198813353624 183.0092378090152,196.97388246911547 177.05769909124822,196.97388246911547 C171.10616037348123,196.97388246911547 166.27426603790198,192.14198813353624 166.27426603790198,186.19044941576925 C166.27426603790198,180.23891069800226 171.10616037348123,175.407016362423 177.05769909124822,175.407016362423 C183.0092378090152,175.407016362423 187.84113214459444,180.23891069800226 187.84113214459444,186.19044941576925 Z" fill="none" stroke="#000000" stroke-width="1.428" stroke-linecap="round" stroke-linejoin="round"/><path d="M554.8692788731022,463.9742005491158 C554.8692788731022,469.9257392668827 550.0373845375229,474.757633602462 544.085845819756,474.757633602462 C538.134307101989,474.757633602462 533.3024127664098,469.9257392668827 533.3024127664098,463.9742005491158 C533.3024127664098,458.0226618313488 538.134307101989,453.1907674957695 544.085845819756,453.1907674957695 C550.0373845375229,453.1907674957695 554.8692788731022,458.0226618313488 554.8692788731022,463.9742005491158 Z" fill="none" stroke="#000000" stroke-width="1.428" stroke-linecap="round" stroke-linejoin="round"/><path d="M94.12289597205,507.2962020316449 C94.12289597205,513.2477407494118 89.29100163647077,518.0796350849912 83.33946291870377,518.0796350849912 C77.38792420093678,518.0796350849912 72.55602986535754,513.2477407494118 72.55602986535754,507.2962020316449 C72.55602986535754,501.3446633138779 77.38792420093678,496.51276897829865 83.33946291870377,496.51276897829865 C89.29100163647077,496.51276897829865 94.12289597205,501.3446633138779 94.12289597205,507.2962020316449 Z" fill="none" stroke="#000000" stroke-width="1.428" stroke-linecap="round" stroke-linejoin="round"/><path d="M406.25904934923756,162.29533404642854 C406.25904934923756,168.24687276419556 401.4271550136583,173.07876709977478 395.4756162958913,173.07876709977478 C389.5240775781243,173.07876709977478 384.69218324254507,168.24687276419556 384.69218324254507,162.29533404642854 C384.69218324254507,156.34379532866154 389.5240775781243,151.51190099308232 395.4756162958913,151.51190099308232 C401.4271550136583,151.51190099308232 406.25904934923756,156.34379532866154 406.25904934923756,162.29533404642854 Z" fill="none" stroke="#000000" stroke-width="1.428" stroke-linecap="round" stroke-linejoin="round"/><path d="M409.1544905135301,629.9883372813428 C409.1544905135301,635.9398759991097 404.3225961779508,640.771770334689 398.37105746018386,640.771770334689 C392.41951874241687,640.771770334689 387.58762440683756,635.9398759991097 387.58762440683756,629.9883372813428 C387.58762440683756,624.0367985635758 392.41951874241687,619.2049042279966 398.37105746018386,619.2049042279966 C404.3225961779508,619.2049042279966 409.1544905135301,624.0367985635758 409.1544905135301,629.9883372813428 Z" fill="none" stroke="#000000" stroke-width="1.428" stroke-linecap="round" stroke-linejoin="round"/><path d="M89.44013058997798,285.2878755282446 C89.44013058997798,291.2394142460116 84.60823625439875,296.07130858159087 78.65669753663175,296.07130858159087 C72.70515881886476,296.07130858159087 67.87326448328552,291.2394142460116 67.87326448328552,285.2878755282446 C67.87326448328552,279.3363368104777 72.70515881886476,274.50444247489844 78.65669753663175,274.50444247489844 C84.60823625439875,274.50444247489844 89.44013058997798,279.3363368104777 89.44013058997798,285.2878755282446 Z" fill="none" stroke="#000000" stroke-width="1.428" stroke-linecap="round" stroke-linejoin="round"/><path d="M560.4506623301451,323.6976452902955 C560.4506623301451,329.64918400806243 555.6187679945658,334.4810783436417 549.6672292767988,334.4810783436417 C543.7156905590318,334.4810783436417 538.8837962234527,329.64918400806243 538.8837962234527,323.6976452902955 C538.8837962234527,317.7461065725285 543.7156905590318,312.9142122369493 549.6672292767988,312.9142122369493 C555.6187679945658,312.9142122369493 560.4506623301451,317.7461065725285 560.4506623301451,323.6976452902955 Z" fill="none" stroke="#000000" stroke-width="1.428" stroke-linecap="round" stroke-linejoin="round"/><path d="M185.28451887045566,615.0173101120565 C185.28451887045566,620.9688488298235 180.4526245348764,625.8007431654028 174.50108581710944,625.8007431654028 C168.54954709934245,625.8007431654028 163.71765276376323,620.9688488298235 163.71765276376323,615.0173101120565 C163.71765276376323,609.0657713942895 168.54954709934245,604.2338770587103 174.50108581710944,604.2338770587103 C180.4526245348764,604.2338770587103 185.28451887045566,609.0657713942895 185.28451887045566,615.0173101120565 Z" fill="none" stroke="#000000" stroke-width="1.428" stroke-linecap="round" stroke-linejoin="round"/><path d="M265.54574046030723,144.4161315629692 C265.54574046030723,150.3676702807362 260.713846124728,155.19956461631543 254.76230740696099,155.19956461631543 C248.810768689194,155.19956461631543 243.97887435361477,150.3676702807362 243.97887435361477,144.4161315629692 C243.97887435361477,138.46459284520222 248.810768689194,133.63269850962297 254.76230740696099,133.63269850962297 C260.713846124728,133.63269850962297 265.54574046030723,138.46459284520222 265.54574046030723,144.4161315629692 Z" fill="none" stroke="#000000" stroke-width="1.428" stroke-linecap="round" stroke-linejoin="round"/><path d="M525.5430083419803,547.6521716471912 C525.5430083419803,553.603710364958 520.711114006401,558.4356047005374 514.7595752886341,558.4356047005374 C508.80803657086705,558.4356047005374 503.9761422352878,553.603710364958 503.9761422352878,547.6521716471912 C503.9761422352878,541.700632929424 508.80803657086705,536.8687385938449 514.7595752886341,536.8687385938449 C520.711114006401,536.8687385938449 525.5430083419803,541.700632929424 525.5430083419803,547.6521716471912 Z" fill="none" stroke="#000000" stroke-width="1.428" stroke-linecap="round" stroke-linejoin="round"/><path d="M59.14500502010327,425.33563158616977 C59.14500502010327,431.28717030393676 54.313110684524034,436.119064639516 48.36157196675703,436.119064639516 C42.41003324899005,436.119064639516 37.57813891341081,431.28717030393676 37.578138913410804,425.33563158616977 C37.578138913410804,419.3840928684028 42.41003324899004,414.5521985328235 48.36157196675703,414.5521985328235 C54.31311068452403,414.5521985328235 59.14500502010327,419.3840928684028 59.14500502010327,425.33563158616977 Z" fill="none" stroke="#000000" stroke-width="1.428" stroke-linecap="round" stroke-linejoin="round"/><path d="M487.77413374367313,199.37976554425776 C487.77413374367313,205.33130426202476 482.9422394080938,210.16319859760398 476.9907006903269,210.16319859760398 C471.0391619725599,210.16319859760398 466.2072676369806,205.33130426202476 466.2072676369806,199.37976554425776 C466.2072676369806,193.42822682649077 471.0391619725599,188.59633249091155 476.9907006903269,188.59633249091155 C482.9422394080938,188.59633249091155 487.77413374367313,193.42822682649077 487.77413374367313,199.37976554425776 Z" fill="none" stroke="#000000" stroke-width="1.428" stroke-linecap="round" stroke-linejoin="round"/><path d="M323.54787184855485,657.7456324903739 C323.54787184855485,663.6971712081408 318.7159775129756,668.52906554372 312.7644387952086,668.52906554372 C306.8129000774416,668.52906554372 301.98100574186236,663.6971712081408 301.98100574186236,657.7456324903739 C301.98100574186236,651.7940937726069 306.8129000774416,646.9621994370276 312.7644387952086,646.9621994370276 C318.7159775129756,646.9621994370276 323.54787184855485,651.7940937726069 323.54787184855485,657.7456324903739 Z" fill="none" stroke="#000000" stroke-width="1.428" stroke-linecap="round" stroke-linejoin="round"/><path d="M134.1169909255666,206.662465104305 C134.1169909255666,212.614003822072 129.28509658998738,217.44589815765124 123.33355787222038,217.44589815765124 C117.38201915445339,217.44589815765124 112.55012481887415,212.614003822072 112.55012481887415,206.662465104305 C112.55012481887415,200.710926386538 117.38201915445339,195.87903205095878 123.33355787222038,195.87903205095878 C129.28509658998738,195.87903205095878 134.1169909255666,200.710926386538 134.1169909255666,206.662465104305 Z" fill="none" stroke="#000000" stroke-width="1.428" stroke-linecap="round" stroke-linejoin="round"/><path d="M580.6191066910276,412.2992624419293 C580.6191066910276,418.25080115969627 575.7872123554483,423.0826954952755 569.8356736376813,423.0826954952755 C563.8841349199143,423.0826954952755 559.0522405843352,418.25080115969627 559.0522405843352,412.2992624419293 C559.0522405843352,406.3477237241623 563.8841349199143,401.51582938858303 569.8356736376813,401.51582938858303 C575.7872123554483,401.51582938858303 580.6191066910276,406.3477237241623 580.6191066910276,412.2992624419293 Z" fill="none" stroke="#000000" stroke-width="1.428" stroke-linecap="round" stroke-linejoin="round"/><path d="M110.2619055389092,562.9819893075407 C110.2619055389092,568.9335280253076 105.43001120332997,573.765422360887 99.47847248556297,573.765422360887 C93.52693376779598,573.765422360887 88.69503943221675,568.9335280253076 88.69503943221675,562.9819893075407 C88.69503943221675,557.0304505897736 93.52693376779598,552.1985562541945 99.47847248556297,552.1985562541945 C105.43001120332997,552.1985562541945 110.2619055389092,557.0304505897736 110.2619055389092,562.9819893075407 Z" fill="none" stroke="#000000" stroke-width="1.428" stroke-linecap="round" stroke-linejoin="round"/><path d="M356.4553604658879,132.14499872965456 C356.4553604658879,138.09653744742155 351.62346613030866,142.9284317830008 345.67192741254166,142.9284317830008 C339.72038869477467,142.9284317830008 334.8884943591954,138.09653744742155 334.8884943591954,132.14499872965456 C334.8884943591954,126.19346001188758 339.72038869477467,121.36156567630835 345.67192741254166,121.36156567630835 C351.62346613030866,121.36156567630835 356.4553604658879,126.19346001188757 356.4553604658879,132.14499872965456 Z" fill="none" stroke="#000000" stroke-width="1.428" stroke-linecap="round" stroke-linejoin="round"/><path d="M466.4502076429487,618.3789053483831 C466.4502076429487,624.3304440661501 461.6183133073695,629.1623384017294 455.6667745896025,629.1623384017294 C449.7152358718355,629.1623384017294 444.88334153625624,624.3304440661501 444.88334153625624,618.3789053483831 C444.88334153625624,612.4273666306161 449.7152358718355,607.5954722950369 455.6667745896025,607.5954722950369 C461.6183133073695,607.5954722950369 466.4502076429487,612.4273666306161 466.4502076429487,618.3789053483831 Z" fill="none" stroke="#000000" stroke-width="1.428" stroke-linecap="round" stroke-linejoin="round"/><path d="M55.016452700111174,332.8354023463377 C55.016452700111174,338.78694106410467 50.18455836453194,343.6188353996839 44.233019646764944,343.6188353996839 C38.28148092899795,343.6188353996839 33.449586593418715,338.78694106410467 33.44958659341871,332.8354023463377 C33.44958659341871,326.8838636285707 38.281480928997944,322.05196929299143 44.233019646764944,322.05196929299143 C50.18455836453193,322.05196929299143 55.016452700111174,326.8838636285707 55.016452700111174,332.8354023463377 Z" fill="none" stroke="#000000" stroke-width="1.428" stroke-linecap="round" stroke-linejoin="round"/></svg>